<?xml version="1.0" encoding="UTF-8"?>
<!-- Created with Inkscape (http://www.inkscape.org/) -->
<svg id="svg8" width="1582.1pt" height="1e3pt" version="1.1" viewBox="0 0 1582.1 1e3" xmlns="http://www.w3.org/2000/svg" xmlns:cc="http://creativecommons.org/ns#" xmlns:dc="http://purl.org/dc/elements/1.1/" xmlns:rdf="http://www.w3.org/1999/02/22-rdf-syntax-ns#">
 <metadata id="metadata5">
  <rdf:RDF>
   <cc:Work rdf:about="">
    <dc:format>image/svg+xml</dc:format>
    <dc:type rdf:resource="http://purl.org/dc/dcmitype/StillImage"/>
    <dc:title/>
   </cc:Work>
  </rdf:RDF>
 </metadata>
 <g id="layer1" transform="translate(-28.285 832.16)">
  <g id="g1957" transform="matrix(24.308 0 0 24.308 -659.27 -3912)">
   <path id="path160" d="m48.155 143.99 16.333-0.037 0.46 0.455 8.082-0.012 0.542-0.464 11.333-0.025 1.167-7.75-3-1.167h-33.25l-1.667 9" fill="#fff"/>
   <path id="path162" d="m88.411 143.91v-1.679h-0.54v-0.204h1.312v0.204h-0.54v1.679h-0.232" fill="#f30"/>
   <path id="path164" d="m91.035 143.91v-1.644l-0.609 1.644h-0.161l-0.615-1.644v1.644h-0.199v-1.883h0.348l0.565 1.505 0.556-1.505h0.342v1.883h-0.227" fill="#f30"/>
   <path id="path166" d="m77.821 147.36h0.329v0.335h-0.329z" fill="#f30"/>
   <path id="path168" d="m89.658 149.82c-0.21 0-0.317-0.104-0.317-0.306v-1.226h0.44v-0.237h-0.44v-0.515l-0.286 0.024-0.012 0.491h-0.344v0.237h0.344v1.178c0 0.393 0.191 0.595 0.559 0.595 0.092 0 0.155 0 0.29-0.024v-0.241c-0.107 0.02-0.163 0.024-0.234 0.024" fill="#f30"/>
   <path id="path170" d="m79.422 148.24c0.261 0 0.419 0.159 0.471 0.485l0.273-0.052c-0.079-0.445-0.341-0.681-0.741-0.681-0.506 0-0.837 0.411-0.837 1.031 0 0.624 0.323 1.026 0.822 1.026 0.217 0 0.388-0.066 0.526-0.208 0.127-0.127 0.182-0.242 0.23-0.48l-0.273-0.048c-0.064 0.322-0.23 0.489-0.476 0.489-0.324 0-0.514-0.294-0.514-0.787 0-0.477 0.198-0.775 0.519-0.775" fill="#f30"/>
   <path id="path172" d="m75.937 149.47-0.79-2.11h-0.492v2.64h0.283v-2.305l0.861 2.305h0.225l0.853-2.305v2.305h0.319v-2.64h-0.481l-0.778 2.11" fill="#f30"/>
   <path id="path174" d="m77.831 148.05h0.304v1.952h-0.304z" fill="#f30"/>
   <path id="path176" d="m81.055 148.16c-0.073 0.088-0.109 0.148-0.204 0.342v-0.454h-0.263v1.954h0.304v-1.036c8e-3 -0.417 0.289-0.711 0.658-0.679v-0.288c-0.044 0-0.087-0.01-0.115-0.01-0.147 0-0.293 0.066-0.38 0.169" fill="#f30"/>
   <path id="path178" d="m84.741 148.87-0.385-0.068c-0.211-0.04-0.306-0.127-0.306-0.278 0-0.171 0.171-0.286 0.421-0.286s0.409 0.095 0.501 0.306l0.275-0.06c-0.094-0.325-0.359-0.494-0.768-0.494-0.445 0-0.738 0.228-0.738 0.574 0 0.278 0.194 0.477 0.527 0.54l0.414 0.076c0.222 0.043 0.337 0.143 0.337 0.302 0 0.191-0.187 0.318-0.457 0.318-0.19 0-0.369-0.056-0.484-0.147-0.064-0.052-0.096-0.111-0.127-0.223l-0.289 0.06c0.047 0.171 0.099 0.254 0.202 0.341 0.166 0.145 0.389 0.216 0.666 0.216 0.485 0 0.804-0.239 0.804-0.597 0-0.318-0.193-0.509-0.593-0.58" fill="#f30"/>
   <path id="path180" d="m82.601 147.99c-0.285 0-0.506 0.102-0.685 0.323-0.143 0.175-0.215 0.41-0.215 0.7 0 0.274 0.064 0.505 0.195 0.695 0.159 0.229 0.373 0.339 0.658 0.339 0.531 0 0.904-0.418 0.904-1.018 0-0.621-0.35-1.039-0.857-1.039zm-0.023 1.81c-0.345 0-0.543-0.286-0.543-0.791 0-0.239 0.048-0.43 0.135-0.557s0.249-0.214 0.4-0.214c0.162 0 0.317 0.079 0.416 0.21 0.094 0.135 0.138 0.314 0.138 0.569 0 0.493-0.202 0.783-0.546 0.783" fill="#f30"/>
   <path id="path182" d="m88.189 147.74c0.044-0.122 0.174-0.185 0.368-0.185 0.064 0 0.103 0 0.186 0.028v-0.246c-0.138-0.02-0.206-0.028-0.293-0.028-0.249 0-0.448 0.119-0.516 0.309-0.044 0.114-0.055 0.193-0.063 0.433h-0.345v0.237h0.345v1.717h0.282v-1.717h0.475v-0.237h-0.475c0-0.213 0-0.224 0.036-0.311" fill="#f30"/>
   <path id="path184" d="m86.51 147.99c-0.285 0-0.507 0.102-0.686 0.323-0.143 0.175-0.215 0.41-0.215 0.7 0 0.274 0.064 0.505 0.195 0.695 0.159 0.229 0.373 0.339 0.658 0.339 0.531 0 0.905-0.418 0.905-1.018 0-0.621-0.351-1.039-0.857-1.039zm-0.024 1.81c-0.344 0-0.542-0.286-0.542-0.791 0-0.239 0.047-0.43 0.134-0.557s0.25-0.214 0.4-0.214c0.163 0 0.317 0.079 0.416 0.21 0.095 0.135 0.138 0.314 0.138 0.569 0 0.493-0.201 0.783-0.546 0.783" fill="#f30"/>
   <path id="path186" d="m90.508 147.68c0.25 0 0.452 0.199 0.452 0.443 0 0.251-0.197 0.451-0.446 0.451-0.246 0-0.445-0.2-0.445-0.448 0-0.243 0.199-0.446 0.439-0.446zm0.015-0.073c-0.293 0-0.528 0.229-0.528 0.516 0 0.292 0.231 0.525 0.52 0.525 0.287 0 0.519-0.233 0.519-0.522 0-0.283-0.232-0.519-0.511-0.519zm0.237 0.824-0.125-0.277c0.074-0.026 0.116-0.083 0.116-0.156 0-0.101-0.084-0.173-0.206-0.173h-0.255v0.606h0.089v-0.258h0.166l0.116 0.258zm-0.381-0.329v-0.201h0.166c0.069 0 0.111 0.037 0.111 0.096 0 0.064-0.045 0.105-0.121 0.105h-0.156" fill="#f30"/>
   <path id="path188" d="m83.856 135.41c0.102-0.926 0.021-1.832-0.261-2.7-1.909-5.872-12.291-7.762-23.19-4.221-10.899 3.541-18.187 11.172-16.279 17.044s12.29 7.762 23.189 4.221c4.326-1.405 8.082-3.454 10.921-5.782h-3.642l1.412-8.546h3.457l-0.239 1.387c0.265-0.538 0.498-0.798 0.952-1.075 0.613-0.364 1.411-0.572 2.255-0.572 0.533 0 1.014 0.086 1.425 0.244zm-23.747 8.562 0.833-5.062c0.034-0.225 0.047-0.45 0.042-0.624-0.013-0.451-0.323-0.728-0.826-0.728-0.382 0-0.719 0.173-0.93 0.485-0.153 0.26-0.209 0.399-0.311 1.023l-0.798 4.906h-3.659l0.833-5.062c0.052-0.277 0.065-0.52 0.06-0.693-0.012-0.399-0.343-0.694-0.805-0.694-0.342 0-0.719 0.156-0.913 0.399-0.154 0.208-0.229 0.416-0.332 0.988l-0.833 5.062h-3.639l1.412-8.546h3.378l-0.222 1.317c0.347-0.485 0.542-0.693 0.837-0.918 0.57-0.416 1.367-0.659 2.171-0.659 1.267 0 2.086 0.503 2.561 1.577 0.691-1.074 1.562-1.525 2.909-1.525 1.749 0 2.923 0.919 2.965 2.323 8e-3 0.277-3e-3 0.572-0.055 0.866l-0.918 5.565zm9.843-5.738c1.01 0.139 2.365 0.433 2.813 0.624 1.201 0.485 1.847 1.248 1.877 2.254 0.027 0.884-0.49 1.768-1.359 2.27-0.849 0.52-2.047 0.78-3.515 0.78-1.568 0-2.823-0.277-3.805-0.849-0.757-0.433-1.111-0.849-1.418-1.716l3.084-0.381c0.342 0.658 0.953 0.918 2.119 0.918 0.764 0 1.299-0.225 1.29-0.537-6e-3 -0.208-0.232-0.364-0.697-0.451-2.365-0.433-2.892-0.589-3.526-0.918-0.94-0.52-1.402-1.162-1.427-2.011-0.055-1.82 1.699-2.999 4.453-2.999 1.307 0 2.379 0.225 3.339 0.711 0.837 0.416 1.209 0.78 1.552 1.473l-2.898 0.555c-0.299-0.572-0.89-0.832-1.895-0.832-0.623 0-1.019 0.208-1.01 0.52 9e-3 0.295 0.337 0.485 1.023 0.589" fill="#f30"/>
   <path id="path190" d="m78.272 143.97 0.852-5.131c0.153-0.919 0.622-1.37 1.406-1.37 0.583 0 0.892 0.243 0.905 0.694 4e-3 0.138-0.011 0.295-0.08 0.676l-0.831 5.131zm5.476-8.601c0.431-0.129 0.904-0.199 1.393-0.199 1.668 0 2.84 0.849 2.877 2.08 8e-3 0.277-0.023 0.572-0.074 0.884l-0.951 5.842-2.71-0.01 0.951-5.842c0.051-0.312 0.082-0.607 0.074-0.884-0.026-0.872-0.622-1.552-1.56-1.875" fill="#f30" fill-rule="evenodd"/>
   <path id="path192" d="m90.325 157.43v-1.794h-0.577v-0.218h1.402v0.218h-0.577v1.794h-0.248"/>
   <path id="path194" d="m93.13 157.43v-1.757l-0.652 1.757h-0.171l-0.658-1.757v1.757h-0.212v-2.012h0.372l0.603 1.608 0.594-1.608h0.366v2.012h-0.242"/>
   <path id="path196" d="m39.734 155.28h-2.696l-0.812 4.839h-3.989l0.812-4.839h-2.696l-2.068 12.318h2.714l0.85-5.134h3.989l-0.868 5.134h2.714l2.05-12.318"/>
   <path id="path198" d="m44.644 158.2c-2.825 0-4.764 2.235-4.764 5.466 0 2.383 1.68 4.118 4.025 4.118 2.641 0 4.691-2.308 4.691-5.281 0-2.549-1.607-4.303-3.952-4.303zm-0.074 1.773c0.887 0 1.348 0.591 1.348 1.699s-0.24 2.474-0.591 3.305c-0.277 0.684-0.738 1.035-1.366 1.035-0.924 0-1.367-0.573-1.367-1.718 0-1.274 0.259-2.622 0.647-3.435 0.258-0.554 0.757-0.886 1.329-0.886" fill-rule="evenodd"/>
   <path id="path200" d="m55.385 160.58 0.351-2.086h-2.105l0.443-2.641-2.493 0.055-0.517 2.586h-1.477l-0.351 2.086h1.403l-0.59 2.973c-0.277 1.367-0.296 1.478-0.296 2.087 0 1.459 0.905 2.179 2.752 2.179 0.609 0 1.071-0.037 1.809-0.147l0.333-2.013c-0.259 0.055-0.573 0.074-0.979 0.074-0.831 0-1.163-0.222-1.163-0.721 0-0.166 0.018-0.295 0.092-0.794l0.609-3.638h2.179"/>
   <path id="path202" d="m65.554 167.6h2.604l0.849-5.079c0.203-1.219 0.203-1.219 0.203-1.662 0-1.569-1.034-2.603-2.603-2.603-1.182 0-1.829 0.406-2.697 1.68-0.498-1.219-1.163-1.717-2.252-1.717-1.145 0-1.792 0.443-2.641 1.772l0.258-1.569h-2.4l-1.533 9.178h2.641l0.683-4.063c0.277-1.736 0.295-1.791 0.498-2.216 0.314-0.665 0.776-1.016 1.349-1.016 0.554 0 0.941 0.388 0.941 0.924 0 0.184-0.037 0.517-0.11 0.904l-0.905 5.467h2.567l0.757-4.525c0.166-1.034 0.277-1.44 0.48-1.828 0.314-0.591 0.757-0.905 1.329-0.905 0.628 0 0.979 0.388 0.979 1.053 0 0.24-0.018 0.388-0.129 1.071l-0.868 5.134"/>
   <path id="path204" d="m78.015 167.6c-0.037-0.259-0.037-0.388-0.037-0.61 0-0.498 0.055-0.96 0.185-1.736l0.387-2.345c0.24-1.496 0.259-1.588 0.259-1.994 0-1.644-1.348-2.659-3.564-2.659-2.327 0-3.823 0.941-4.469 2.806l2.401 0.277c0.387-1.015 0.886-1.403 1.846-1.403 0.739 0 1.201 0.425 1.201 1.089 0 0.277-0.037 0.481-0.167 0.832-1.846 0.11-3.102 0.295-3.952 0.627-1.477 0.554-2.252 1.552-2.252 2.844 0 1.459 1.144 2.512 2.733 2.512 1.348 0 2.419-0.647 2.954-1.828 0 0.166-0.018 0.24-0.037 0.443-0.037 0.314-0.055 0.443-0.055 0.609 0 0.129 0 0.129 0.018 0.536zm-2.161-4.451c-0.295 1.958-1.071 3.01-2.197 3.01-0.61 0-1.035-0.461-1.035-1.126 0-0.628 0.37-1.164 1.016-1.478 0.499-0.221 1.09-0.332 2.216-0.406" fill-rule="evenodd"/>
   <path id="path206" d="m83.907 158.42h-2.751l-1.533 9.178h2.752zm0.554-3.287h-2.751l-0.443 2.603h2.769l0.425-2.603" fill-rule="evenodd"/>
   <path id="path208" d="m88.926 155.28h-2.641l-2.068 12.318h2.641l2.068-12.318"/>
  </g>
 </g>
</svg>
