<?xml version="1.0" encoding="UTF-8" standalone="no"?>
<!DOCTYPE svg PUBLIC "-//W3C//DTD SVG 1.1//EN" "http://www.w3.org/Graphics/SVG/1.1/DTD/svg11.dtd">
<svg width="100%" height="100%" viewBox="0 0 24 24" version="1.1" xmlns="http://www.w3.org/2000/svg" xmlns:xlink="http://www.w3.org/1999/xlink" xml:space="preserve" xmlns:serif="http://www.serif.com/" style="fill-rule:evenodd;clip-rule:evenodd;stroke-linejoin:round;stroke-miterlimit:2;">
    <rect x="0" y="0" width="24" height="24" style="fill:none;fill-rule:nonzero;"/>
    <path d="M18.3,5.71C17.91,5.32 17.28,5.32 16.89,5.71L12,10.59L7.11,5.7C6.72,5.31 6.09,5.31 5.7,5.7C5.31,6.09 5.31,6.72 5.7,7.11L10.59,12L5.7,16.89C5.31,17.28 5.31,17.91 5.7,18.3C6.09,18.69 6.72,18.69 7.11,18.3L12,13.41L16.89,18.3C17.28,18.69 17.91,18.69 18.3,18.3C18.69,17.91 18.69,17.28 18.3,16.89L13.41,12L18.3,7.11C18.68,6.73 18.68,6.09 18.3,5.71Z" style="fill:white;fill-rule:nonzero;"/>
</svg>
