<svg viewBox="0 0 256 256" xmlns="http://www.w3.org/2000/svg"><path fill="#ffffff" d="m247.31055 124.75061c-.35157-.79-8.81934-19.57617-27.65332-38.41113-25.08399-25.08692-56.7793-38.34766-91.65723-38.34766s-66.57324 13.26074-91.65723 38.34766c-18.834 18.835-27.30175 37.62109-27.65332 38.41113a8.00282 8.00282 0 0 0 0 6.49805c.35157.791 8.82032 19.57226 27.6543 38.40429 25.08398 25.08105 56.77832 38.33887 91.65625 38.33887s66.57227-13.25782 91.65625-38.33882c18.834-18.832 27.30273-37.61328 27.6543-38.40429a8.00282 8.00282 0 0 0 0-6.4981zm-119.31055 67.24121c-30.78027 0-57.67383-11.18555-79.93457-33.24609a133.46132 133.46132 0 0 1 -23.11328-30.7461 133.4854 133.4854 0 0 1 23.11328-30.7539c22.26074-22.06543 49.15527-33.25391 79.93457-33.25391s57.67383 11.18848 79.93457 33.25391a133.46356 133.46356 0 0 1 23.11426 30.75488c-7.21289 13.45019-38.61719 63.99121-103.04883 63.99121zm0-111.99121a48 48 0 1 0 48 48 48.05375 48.05375 0 0 0 -48-48zm0 80a32 32 0 1 1 32-32 32.03667 32.03667 0 0 1 -32 32z"/></svg>