<?xml version="1.0" encoding="UTF-8" standalone="no"?>
<!DOCTYPE svg PUBLIC "-//W3C//DTD SVG 1.1//EN" "http://www.w3.org/Graphics/SVG/1.1/DTD/svg11.dtd">
<svg width="100%" height="100%" viewBox="0 0 1049 528" version="1.1" xmlns="http://www.w3.org/2000/svg" xmlns:xlink="http://www.w3.org/1999/xlink" xml:space="preserve" xmlns:serif="http://www.serif.com/" style="fill-rule:evenodd;clip-rule:evenodd;stroke-linejoin:round;stroke-miterlimit:2;">
    <g id="inter_b625b40b-module__n-SICG__variable1">
        <rect x="-98" y="-217" width="1238.4" height="804.8" style="fill:rgb(10,10,10);"/>
        <rect x="25.833" y="24.433" width="165.533" height="46.367" style="fill:rgb(68,68,68);"/>
        <g transform="matrix(1,0,0,1,44,53.8167)">
            <text x="0px" y="0px" style="font-family:'Roboto-Mono-Regular', 'Roboto Mono';font-size:16px;fill:white;">TCP / IP Stack</text>
        </g>
        <rect x="851.017" y="24.433" width="165.533" height="46.367" style="fill:rgb(68,68,68);"/>
        <g transform="matrix(1,0,0,1,892.183,53.8167)">
            <text x="0px" y="0px" style="font-family:'Roboto-Mono-Regular', 'Roboto Mono';font-size:16px;fill:white;">OSI Model</text>
        </g>
        <g transform="matrix(0.495333,0,0,0.965767,256.467,231.745)">
            <path d="M-48,-217L2,-167L-28,-167L-28,283L-68,283L-68,-167L-98,-167L-48,-217Z" style="fill:rgb(68,68,68);fill-rule:nonzero;"/>
        </g>
        <rect x="211.35" y="133.867" width="41.6" height="264" style="fill:rgb(68,68,68);"/>
        <g transform="matrix(6.12323e-17,1,-1,6.12323e-17,223.112,141.887)">
            <text x="0px" y="0px" style="font-family:'Roboto-Mono-Regular', 'Roboto Mono';font-size:32px;fill:white;">encapsulation</text>
        </g>
        <g transform="matrix(-0.495333,6.55655e-22,-1.55845e-22,-0.965767,785.854,298.514)">
            <path d="M-48,-217L2,-167L-28,-167L-28,283L-68,283L-68,-167L-98,-167L-48,-217Z" style="fill:rgb(68,68,68);fill-rule:nonzero;"/>
        </g>
        <rect x="789.433" y="133.867" width="41.6" height="264" style="fill:rgb(68,68,68);"/>
        <g transform="matrix(6.12323e-17,-1,1,6.12323e-17,819.668,392.411)">
            <text x="0px" y="0px" style="font-family:'Roboto-Mono-Regular', 'Roboto Mono';font-size:32px;fill:white;">decapsulation</text>
        </g>
        <rect x="25.833" y="86.8" width="165.533" height="171.1" style="fill:rgb(76,202,245);"/>
        <g transform="matrix(1,0,0,1,57.2,178.55)">
            <text x="0px" y="0px" style="font-family:'Roboto-Mono-Regular', 'Roboto Mono';font-size:16px;">Application</text>
        </g>
        <rect x="25.833" y="273.9" width="165.533" height="46.367" style="fill:rgb(121,195,91);"/>
        <g transform="matrix(1,0,0,1,66,303.283)">
            <text x="0px" y="0px" style="font-family:'Roboto-Mono-Regular', 'Roboto Mono';font-size:16px;">Transport</text>
        </g>
        <rect x="25.833" y="336.267" width="165.533" height="46.35" style="fill:rgb(252,224,84);"/>
        <g transform="matrix(1,0,0,1,70.4,365.633)">
            <text x="0px" y="0px" style="font-family:'Roboto-Mono-Regular', 'Roboto Mono';font-size:16px;">Internet</text>
        </g>
        <rect x="25.833" y="398.617" width="165.533" height="46.35" style="fill:rgb(246,143,67);"/>
        <g transform="matrix(1,0,0,1,88,427.983)">
            <text x="0px" y="0px" style="font-family:'Roboto-Mono-Regular', 'Roboto Mono';font-size:16px;">Link</text>
        </g>
        <rect x="851.017" y="86.8" width="165.533" height="46.367" style="fill:rgb(76,202,245);"/>
        <g transform="matrix(1,0,0,1,883.383,116.183)">
            <text x="0px" y="0px" style="font-family:'Roboto-Mono-Regular', 'Roboto Mono';font-size:16px;">Application</text>
        </g>
        <rect x="851.017" y="149.167" width="165.533" height="46.367" style="fill:rgb(76,202,245);"/>
        <g transform="matrix(1,0,0,1,878.983,178.55)">
            <text x="0px" y="0px" style="font-family:'Roboto-Mono-Regular', 'Roboto Mono';font-size:16px;">Presentation</text>
        </g>
        <rect x="851.017" y="211.533" width="165.533" height="46.367" style="fill:rgb(76,202,245);"/>
        <g transform="matrix(1,0,0,1,900.983,240.917)">
            <text x="0px" y="0px" style="font-family:'Roboto-Mono-Regular', 'Roboto Mono';font-size:16px;">Session</text>
        </g>
        <rect x="851.017" y="273.9" width="165.533" height="46.367" style="fill:rgb(121,195,91);"/>
        <g transform="matrix(1,0,0,1,892.183,303.283)">
            <text x="0px" y="0px" style="font-family:'Roboto-Mono-Regular', 'Roboto Mono';font-size:16px;">Transport</text>
        </g>
        <rect x="851.017" y="336.267" width="165.533" height="46.35" style="fill:rgb(252,224,84);"/>
        <g transform="matrix(1,0,0,1,900.983,365.633)">
            <text x="0px" y="0px" style="font-family:'Roboto-Mono-Regular', 'Roboto Mono';font-size:16px;">Network</text>
        </g>
        <rect x="851.017" y="398.617" width="165.533" height="46.35" style="fill:rgb(246,143,67);"/>
        <g transform="matrix(1,0,0,1,892.183,427.983)">
            <text x="0px" y="0px" style="font-family:'Roboto-Mono-Regular', 'Roboto Mono';font-size:16px;">Data Link</text>
        </g>
        <rect x="851.017" y="460.967" width="165.533" height="46.35" style="fill:rgb(240,85,114);"/>
        <g transform="matrix(1,0,0,1,896.583,490.333)">
            <text x="0px" y="0px" style="font-family:'Roboto-Mono-Regular', 'Roboto Mono';font-size:16px;">Physical</text>
        </g>
        <rect x="521.183" y="86.8" width="141.883" height="171.1" style="fill:rgb(76,202,245);"/>
        <g transform="matrix(1,0,0,1,572.517,178.55)">
            <text x="0px" y="0px" style="font-family:'Roboto-Mono-Regular', 'Roboto Mono';font-size:16px;">data</text>
        </g>
        <rect x="450.25" y="273.9" width="70.933" height="46.367" style="fill:rgb(121,195,91);"/>
        <g transform="matrix(1,0,0,1,457.317,303.283)">
            <text x="0px" y="0px" style="font-family:'Roboto-Mono-Regular', 'Roboto Mono';font-size:16px;">header</text>
        </g>
        <rect x="521.183" y="273.9" width="141.883" height="46.367" style="fill:rgb(76,202,245);"/>
        <g transform="matrix(1,0,0,1,572.517,303.283)">
            <text x="0px" y="0px" style="font-family:'Roboto-Mono-Regular', 'Roboto Mono';font-size:16px;">data</text>
        </g>
        <rect x="379.317" y="336.267" width="70.933" height="46.35" style="fill:rgb(252,224,84);"/>
        <g transform="matrix(1,0,0,1,386.383,365.633)">
            <text x="0px" y="0px" style="font-family:'Roboto-Mono-Regular', 'Roboto Mono';font-size:16px;">header</text>
        </g>
        <rect x="450.25" y="336.267" width="70.933" height="46.35" style="fill:rgb(121,195,91);"/>
        <g transform="matrix(1,0,0,1,457.317,365.633)">
            <text x="0px" y="0px" style="font-family:'Roboto-Mono-Regular', 'Roboto Mono';font-size:16px;">header</text>
        </g>
        <rect x="521.183" y="336.267" width="141.883" height="46.35" style="fill:rgb(76,202,245);"/>
        <g transform="matrix(1,0,0,1,572.517,365.633)">
            <text x="0px" y="0px" style="font-family:'Roboto-Mono-Regular', 'Roboto Mono';font-size:16px;">data</text>
        </g>
        <rect x="308.383" y="398.617" width="70.933" height="46.35" style="fill:rgb(246,143,67);"/>
        <g transform="matrix(1,0,0,1,315.45,427.983)">
            <text x="0px" y="0px" style="font-family:'Roboto-Mono-Regular', 'Roboto Mono';font-size:16px;">header</text>
        </g>
        <rect x="379.317" y="398.617" width="70.933" height="46.35" style="fill:rgb(252,224,84);"/>
        <g transform="matrix(1,0,0,1,386.383,427.983)">
            <text x="0px" y="0px" style="font-family:'Roboto-Mono-Regular', 'Roboto Mono';font-size:16px;">header</text>
        </g>
        <rect x="450.25" y="398.617" width="70.933" height="46.35" style="fill:rgb(121,195,91);"/>
        <g transform="matrix(1,0,0,1,457.317,427.983)">
            <text x="0px" y="0px" style="font-family:'Roboto-Mono-Regular', 'Roboto Mono';font-size:16px;">header</text>
        </g>
        <rect x="521.183" y="398.617" width="141.883" height="46.35" style="fill:rgb(76,202,245);"/>
        <g transform="matrix(1,0,0,1,572.517,427.983)">
            <text x="0px" y="0px" style="font-family:'Roboto-Mono-Regular', 'Roboto Mono';font-size:16px;">data</text>
        </g>
        <rect x="663.067" y="398.617" width="70.933" height="46.35" style="fill:rgb(246,143,67);"/>
        <g transform="matrix(1,0,0,1,670.133,427.983)">
            <text x="0px" y="0px" style="font-family:'Roboto-Mono-Regular', 'Roboto Mono';font-size:16px;">footer</text>
        </g>
        <rect x="272.917" y="460.967" width="35.467" height="46.35" style="fill:rgb(240,85,114);"/>
        <rect x="308.383" y="460.967" width="70.933" height="46.35" style="fill:rgb(246,143,67);"/>
        <g transform="matrix(1,0,0,1,315.45,490.333)">
            <text x="0px" y="0px" style="font-family:'Roboto-Mono-Regular', 'Roboto Mono';font-size:16px;">header</text>
        </g>
        <rect x="379.317" y="460.967" width="70.933" height="46.35" style="fill:rgb(252,224,84);"/>
        <g transform="matrix(1,0,0,1,386.383,490.333)">
            <text x="0px" y="0px" style="font-family:'Roboto-Mono-Regular', 'Roboto Mono';font-size:16px;">header</text>
        </g>
        <rect x="450.25" y="460.967" width="70.933" height="46.35" style="fill:rgb(121,195,91);"/>
        <g transform="matrix(1,0,0,1,457.317,490.333)">
            <text x="0px" y="0px" style="font-family:'Roboto-Mono-Regular', 'Roboto Mono';font-size:16px;">header</text>
        </g>
        <rect x="521.183" y="460.967" width="141.883" height="46.35" style="fill:rgb(76,202,245);"/>
        <g transform="matrix(1,0,0,1,572.517,490.333)">
            <text x="0px" y="0px" style="font-family:'Roboto-Mono-Regular', 'Roboto Mono';font-size:16px;">data</text>
        </g>
        <rect x="663.067" y="460.967" width="70.933" height="46.35" style="fill:rgb(246,143,67);"/>
        <g transform="matrix(1,0,0,1,670.133,490.333)">
            <text x="0px" y="0px" style="font-family:'Roboto-Mono-Regular', 'Roboto Mono';font-size:16px;">footer</text>
        </g>
        <rect x="734" y="460.967" width="35.467" height="46.35" style="fill:rgb(240,85,114);"/>
    </g>
</svg>
